<?xml version="1.0" encoding="UTF-8"?>
<svg width="177px" height="58px" viewBox="0 0 177 58" version="1.1" xmlns="http://www.w3.org/2000/svg" xmlns:xlink="http://www.w3.org/1999/xlink">
    <!-- Generator: Sketch 40.1 (33804) - http://www.bohemiancoding.com/sketch -->
    <title>logo</title>
    <desc>Created with Sketch.</desc>
    <defs></defs>
    <g id="Page-1" stroke="none" stroke-width="1" fill="none" fill-rule="evenodd">
        <g id="SketchAppSources.com---Landing-Page-by-Gita-Adi-Ramdhani-" transform="translate(-70.000000, -16.000000)" fill="#363C44">
            <g id="Top-Header">
                <g id="logo" transform="translate(70.000000, 16.000000)">
                    <rect id="Rectangle-path" x="59.7565148" y="11.3656534" width="3.22609571" height="19.4175374"></rect>
                    <path d="M76.8054236,30.7831908 L73.787467,30.7831908 L73.7744958,22.8105105 C73.7744958,22.0056807 73.5077463,21.2983987 72.9752081,20.6898631 C72.4418292,20.0814472 71.7694907,19.7764603 70.9580726,19.7764603 C70.1719963,19.7764603 69.5101068,20.0547234 68.9734851,20.6104107 C68.4360226,21.1669368 68.1678319,21.829759 68.1678319,22.6003152 L68.1678319,30.7831908 L65.0978705,30.7831908 L65.0978705,22.5759881 C65.0978705,21.0233713 65.6612753,19.6920946 66.7896461,18.5839557 C67.9181371,17.4758167 69.309294,16.9209683 70.9646783,16.9209683 C72.288217,16.9209683 73.5036628,17.3404002 74.6102949,18.1775861 C76.073634,19.2857251 76.8054236,20.8221638 76.8054236,22.7853446 L76.8054236,30.7831908 L76.8054236,30.7831908 Z" id="Shape"></path>
                    <path d="M89.9634647,17.284436 L85.3105414,29.5955995 C84.9178035,30.5601729 84.2031886,31.0429989 83.1665767,31.0429989 C82.6698293,31.0429989 82.2210032,30.903388 81.8202183,30.6259638 C81.4283211,30.3477007 81.1535247,29.9517571 80.9966697,29.4390915 L76.3826599,17.284436 L79.6892248,17.284436 L83.2185815,26.5948643 L86.7219958,17.284436 L89.9634647,17.284436 L89.9634647,17.284436 Z" id="Shape"></path>
                    <path d="M99.9595453,23.659081 C99.9595453,22.5103171 99.5944311,21.5846909 98.864323,20.8822025 C98.1343349,20.1797141 97.2049753,19.8284699 96.0764843,19.8284699 C94.8172008,19.8284699 93.8203432,20.2673154 93.0861515,21.1450065 C92.4650971,21.8995045 92.1545099,22.7731211 92.1545099,23.7645382 C92.1545099,24.9497327 92.4293063,25.9199385 92.9805806,26.6744365 C93.6797021,27.6487167 94.7471806,28.1354974 96.1813345,28.1354974 C97.3098255,28.1354974 98.2057964,27.7931211 98.8709286,27.1083687 C99.5961126,26.3361347 99.9595453,25.1866518 99.9595453,23.659081 M103.081511,23.8708342 C103.081511,25.587389 102.528676,27.145758 101.423004,28.5474993 C100.143303,30.1764527 98.4944047,30.9909894 96.4748671,30.9909894 C94.2634044,30.9909894 92.4642564,30.3030013 91.0756216,28.926426 C89.6869868,27.5505697 88.9933901,25.8299404 88.9933901,23.7645382 C89.0015571,23.7474014 89.0145283,23.7385334 89.0324237,23.7385334 L89.0714572,23.7385334 L89.0324237,23.8172667 C89.0324237,21.8930333 89.7674561,20.2518564 91.2389622,18.893017 C92.6316804,17.612911 94.2163239,16.972858 95.9919316,16.972858 C97.8106564,16.972858 99.408271,17.5521533 100.783935,18.7106241 C102.315733,20.0084661 103.081511,21.7283763 103.081511,23.8708342" id="Shape"></path>
                    <path d="M107.859222,30.7831908 L104.841265,30.7831908 L104.841265,17.2843161 L107.859222,17.2843161 L107.859222,30.7831908 L107.859222,30.7831908 Z M108.094985,14.700616 C108.094985,15.2319762 107.934046,15.6587181 107.61289,15.980722 C107.291734,16.3028456 106.89263,16.4634281 106.41606,16.4634281 C105.920994,16.4634281 105.504716,16.2938578 105.166505,15.9539982 C104.810399,15.6327134 104.632406,15.184161 104.632406,14.609779 C104.632406,14.1311474 104.809558,13.731249 105.165665,13.4082865 C105.503996,13.1041385 105.903099,12.9515852 106.363335,12.9515852 C106.82261,12.9515852 107.230001,13.1131263 107.585987,13.4342913 C107.925159,13.7742708 108.094985,14.1960994 108.094985,14.700616 L108.094985,14.700616 Z" id="Shape"></path>
                    <path d="M119.186648,30.7703682 L116.460302,30.731421 C114.373147,30.731421 112.699146,29.9672161 111.438181,28.4380875 C110.342118,27.1270634 109.795048,25.6676802 109.795048,24.0598182 C109.795048,22.2102436 110.369022,20.6462421 111.517089,19.3692519 C112.743104,17.9797341 114.390201,17.284436 116.460302,17.284436 L119.186648,17.284436 L119.186648,20.1919375 L116.785782,20.1919375 C115.893415,20.1919375 115.080435,20.4799075 114.346364,21.0541696 C113.393464,21.7858984 112.917014,22.8096716 112.917014,24.1254892 C112.917014,25.0405697 113.240692,25.8631354 113.887809,26.5948643 C114.656951,27.449187 115.661855,27.8758091 116.904685,27.8758091 L119.186648,27.8758091 L119.186648,30.7703682 L119.186648,30.7703682 Z" id="Shape"></path>
                    <path d="M133.224326,24.4216081 C133.224326,26.0206021 132.63582,27.4718363 131.458807,28.7747115 C130.081222,30.2868232 128.285677,31.0428791 126.070971,31.0428791 C124.239396,31.0428791 122.643222,30.3728667 121.283652,29.0310443 C119.906067,27.7160655 119.216674,26.1308528 119.216674,24.2756458 C119.216674,21.9156826 119.984134,20.0604756 121.519055,18.7106241 C122.825779,17.5521533 124.365504,16.972858 126.135827,16.972858 C127.669547,16.972858 128.973869,17.3306933 130.046392,18.0445663 C131.109306,18.7762951 132.055721,19.9266169 132.884434,21.4946928 L123.619662,26.6598163 L122.312938,24.1588041 L128.565518,20.6551101 C128.3121,20.4278979 127.999831,20.2414305 127.625109,20.0970261 C127.251587,19.9526217 126.75556,19.8803596 126.137028,19.8803596 C124.935995,19.8803596 124.008797,20.3006303 123.356636,21.140213 C122.678052,21.9806346 122.339361,22.9955398 122.339361,24.184689 C122.339361,25.2004331 122.679253,26.0927444 123.359038,26.8625816 C124.107282,27.7111522 125.070511,28.1354974 126.246322,28.1354974 C127.456964,28.1354974 128.375754,27.785811 129.003895,27.0857194 C129.552767,26.473229 129.979134,25.4494558 130.285397,24.0143997 L133.224326,24.4216081 L133.224326,24.4216081 Z" id="Shape"></path>
                    <path d="M144.599313,30.419843 L144.599313,23.0117179 C144.599313,22.0211397 144.222189,21.1953383 143.46794,20.5341939 C142.704082,19.8909053 141.680802,19.5687816 140.396897,19.5687816 C139.383225,19.5687816 138.493259,19.8649005 137.730603,20.4562994 C136.724137,21.222901 136.222105,22.3716649 136.222105,23.9031903 C136.222105,25.2960636 136.655678,26.4188227 137.521623,27.2721868 C138.31911,28.0559251 139.276333,28.4469555 140.394495,28.4469555 C141.624353,28.4469555 142.716093,27.8506432 143.669713,26.6581386 L143.669713,29.4853489 C142.979119,29.9265912 142.511917,30.2040154 142.270509,30.3160636 C141.695214,30.5576563 140.998615,30.6794114 140.17951,30.6794114 C138.514878,30.6794114 137.068834,30.0847769 135.840177,28.89395 C134.498622,27.6000626 133.828446,25.9361166 133.828446,23.9031903 C133.828446,22.018743 134.390529,20.4814653 135.515898,19.2905186 C136.737349,17.9877633 138.429605,17.3363257 140.593867,17.3363257 C142.608,17.3363257 144.213781,17.9317991 145.40881,19.121907 C146.499348,20.2081156 147.044617,21.5717485 147.044617,23.2136444 L147.044617,30.4069006 L144.599313,30.419843 L144.599313,30.419843 Z" id="Shape"></path>
                    <path d="M149.117601,36.1828366 L149.117601,24.0143997 C149.117601,21.788415 149.843025,20.0710213 151.293873,18.8622187 C152.491303,17.8450366 153.91693,17.3363257 155.569552,17.3363257 C157.771046,17.3363257 159.498132,18.1095183 160.748408,19.655664 C161.770487,20.9243854 162.282127,22.3400278 162.282127,23.9031903 C162.282127,25.5630619 161.871374,27.0045893 161.051068,28.2295699 C159.96053,29.8633169 158.331929,30.6794114 156.166465,30.6794114 C155.520309,30.6794114 154.930602,30.6276415 154.398544,30.5236224 C153.844868,30.419843 153.19631,30.1650681 152.454071,29.7578597 L152.454071,27.2981915 C153.412496,27.7598063 153.900115,27.9991221 153.918131,28.0162589 C154.549874,28.3033899 155.205639,28.4469555 155.88182,28.4469555 C157.11288,28.4469555 158.092923,28.0210524 158.82195,27.1675685 C159.532962,26.3150433 159.888468,25.2271569 159.888468,23.9031903 C159.888468,22.5631655 159.459699,21.4930151 158.60096,20.6915408 C157.750628,19.9087611 156.757374,19.5168919 155.622397,19.5168919 C154.554679,19.5168919 153.639491,19.9087611 152.876835,20.6915408 C151.966452,21.6229192 151.51126,22.9142899 151.51126,24.5676902 L151.51126,36.1828366 L149.117601,36.1828366 L149.117601,36.1828366 Z" id="Shape"></path>
                    <path d="M163.813445,36.1828366 L163.813445,24.0143997 C163.813445,21.788415 164.538869,20.0710213 165.990918,18.8622187 C167.188349,17.8450366 168.612774,17.3363257 170.265396,17.3363257 C172.468091,17.3363257 174.193976,18.1095183 175.444252,19.655664 C176.467532,20.9243854 176.977971,22.3400278 176.977971,23.9031903 C176.977971,25.5630619 176.567218,27.0045893 175.748113,28.2295699 C174.656374,29.8633169 173.027773,30.6794114 170.86231,30.6794114 C170.216154,30.6794114 169.627647,30.6276415 169.09559,30.5236224 C168.541913,30.419843 167.893355,30.1650681 167.149915,29.7578597 L167.149915,27.2981915 C168.10834,27.7598063 168.59596,27.9991221 168.613975,28.0162589 C169.24692,28.3033899 169.901483,28.4469555 170.578866,28.4469555 C171.808724,28.4469555 172.789968,28.0210524 173.517794,27.1675685 C174.228806,26.3150433 174.585513,25.2271569 174.585513,23.9031903 C174.585513,22.5631655 174.155543,21.4930151 173.296804,20.6915408 C172.446473,19.9087611 171.454419,19.5168919 170.318241,19.5168919 C169.251724,19.5168919 168.336536,19.9087611 167.57388,20.6915408 C166.662296,21.6229192 166.207104,22.9142899 166.207104,24.5676902 L166.207104,36.1828366 L163.813445,36.1828366 L163.813445,36.1828366 Z" id="Shape"></path>
                    <path d="M25.7941958,2.94250325 C22.4101642,2.94250325 19.6570355,5.68954217 19.6570355,9.06608837 L19.6570355,31.9444179 C19.6570355,35.3209641 22.4101642,38.0678831 25.7941958,38.0678831 L42.8588382,38.0678831 C46.24311,38.0678831 48.9962387,35.3209641 48.9962387,31.9444179 L48.9962387,9.66815283 L42.255439,2.94250325 L25.7941958,2.94250325 L25.7941958,2.94250325 Z M42.8588382,40.9753847 L25.7941958,40.9753847 C20.8034218,40.9753847 16.7432084,36.9240326 16.7432084,31.9444179 L16.7432084,9.06608837 C16.7432084,4.08635382 20.8034218,0.0350016945 25.7941958,0.0350016945 L43.4623574,0.0350016945 L51.9100658,8.46390408 L51.9100658,31.9444179 C51.9100658,36.9240326 47.8496122,40.9753847 42.8588382,40.9753847 L42.8588382,40.9753847 Z" id="Shape"></path>
                    <path d="M49.6120085,11.6280979 L47.5808209,11.6280979 C43.624617,11.6280979 40.4059677,8.41644836 40.4059677,4.4689955 L40.4059677,2.66268229 L43.3197948,2.66268229 L43.3197948,4.4689955 C43.3197948,6.81349968 45.2312394,8.72071621 47.5808209,8.72071621 L49.6120085,8.72071621 L49.6120085,11.6280979 L49.6120085,11.6280979 Z" id="Shape"></path>
                    <polygon id="Shape" points="40.204074 52.5857376 37.2901269 52.5857376 37.2901269 46.1476984 28.687245 46.1476984 28.687245 39.4328342 31.6011922 39.4328342 31.6011922 43.2403167 40.204074 43.2403167"></polygon>
                    <polygon id="Shape" points="36.8159589 57.9705235 32.7111872 53.2683329 32.7111872 40.1248968 35.6250142 40.1248968 35.6250142 52.1796077 39.0131293 56.0609102"></polygon>
                    <path d="M32.7394115,26.5090605 C31.1936815,26.5090605 29.482209,26.2703438 27.590101,25.7225659 C27.4543843,25.6832591 27.3504949,25.651622 27.2815556,25.6359232 C27.2911638,25.6382001 27.378479,25.6571345 27.5078302,25.6571345 L27.5078302,22.7496329 C27.778303,22.7496329 27.9998936,22.8137461 28.4023599,22.9303481 C30.4604507,23.526181 36.7243201,25.340044 41.1650208,19.0720545 L43.544388,20.7505009 C41.5428659,23.575674 38.1589544,26.5090605 32.7394115,26.5090605" id="Shape"></path>
                    <path d="M43.6834677,23.1546843 C41.6496378,21.1251135 39.2819206,18.8395694 38.8401805,18.5273923 C38.8447445,18.5305081 38.9486338,18.6032495 39.1187002,18.6598129 L40.0406134,15.9017489 C40.4054873,16.0231445 40.7829721,16.1487344 45.7440806,21.0986293 L43.6834677,23.1546843 L43.6834677,23.1546843 Z" id="Shape"></path>
                    <rect id="Rectangle-path" x="27.4385306" y="8.28163098" width="4.57893969" height="10.3836945"></rect>
                    <rect id="Rectangle-path" x="35.8331533" y="10.981334" width="3.88534292" height="2.90750156"></rect>
                    <rect id="Rectangle-path" x="7.94311689" y="18.8730041" width="9.99043571" height="2.90738172"></rect>
                    <path d="M3.01719866,20.5344336 L7.04102073,20.5344336 L7.04102073,16.3809798 L3.01719866,16.3809798 L3.01719866,20.5344336 L3.01719866,20.5344336 Z M9.95496787,23.4418153 L0.103251519,23.4418153 L0.103251519,13.4734782 L7.04114084,13.4734782 L7.04114084,9.25087806 L9.95496787,9.25087806 L9.95496787,23.4418153 L9.95496787,23.4418153 Z" id="Shape"></path>
                </g>
            </g>
        </g>
    </g>
</svg>